<?xml version="1.0" encoding="utf-8"?>
<!-- Generator: Adobe Illustrator 16.0.0, SVG Export Plug-In . SVG Version: 6.00 Build 0)  -->
<!DOCTYPE svg PUBLIC "-//W3C//DTD SVG 1.1//EN" "http://www.w3.org/Graphics/SVG/1.1/DTD/svg11.dtd">
<svg version="1.1" id="Calque_1" xmlns="http://www.w3.org/2000/svg" xmlns:xlink="http://www.w3.org/1999/xlink" x="0px" y="0px"
	 width="150px" height="75px" viewBox="0 0 150 75" enable-background="new 0 0 150 75" xml:space="preserve">
<g>
	<g>
		<path fill="none" stroke="#231F20" stroke-width="2.4534" stroke-linecap="round" stroke-linejoin="round" d="M71.165,33.956
			c1.356-7.321-10.845-7.321-8.405,1.897c1.626,6.236,11.659,15.726-1.084,15.996c-15.183,0.544-29.553-13.556-44.736-10.302
			c-3.524,0.813-5.965,2.168-6.778,5.422c-0.542,2.44,0,4.88,2.44,5.424"/>
	</g>
	<g>
		<path fill="#231F20" d="M109.057,14.976v22.546c-0.551,0.197-1.092,0.431-1.628,0.685V14.976c0-4.334-3.527-7.861-7.861-7.861
			H52.523c-4.335,0-7.862,3.527-7.862,7.861v25.158c-0.494-0.271-0.969-0.565-1.402-0.911c-0.073-0.059-0.149-0.113-0.225-0.167
			v-24.08c0-5.231,4.257-9.489,9.489-9.489h47.044C104.799,5.487,109.057,9.745,109.057,14.976z"/>
		<path fill="#231F20" d="M107.429,56.754v5.267c0,4.336-3.527,7.863-7.861,7.863H52.523c-4.335,0-7.862-3.527-7.862-7.863v-6.701
			c-0.526-0.386-1.064-0.751-1.626-1.061v7.763c0,5.232,4.256,9.49,9.489,9.49h47.045c5.231,0,9.49-4.257,9.49-9.49V55.8
			C108.522,56.122,107.979,56.442,107.429,56.754z"/>
	</g>
	<path fill="none" stroke="#231F20" stroke-width="2.4534" stroke-linecap="round" stroke-linejoin="round" d="M80.878,13.696
		c0,13.249-3.553,25.394-4.099,38.368c4.099-14.906,9.288-15.458,10.656-11.594c0.82,2.484-0.273,5.245,0.273,7.729
		c1.366,8.832,11.749,6.072,16.121,1.656c5.737-6.072,14.209-4.416,22.134-4.692c7.924-0.276,16.121-6.624,15.029-15.457
		c-0.273-1.656-1.093-3.312-1.64-4.969"/>
</g>
</svg>
